<svg xmlns="http://www.w3.org/2000/svg" viewBox="0 0 512 512" fill="none">
  <circle cx="256" cy="256" r="240" stroke="#1e293b" stroke-width="28" fill="none"/>
  <circle cx="256" cy="256" r="180" stroke="#475569" stroke-width="20" fill="none" stroke-dasharray="80 40"/>
  <circle cx="256" cy="256" r="120" stroke="#1e293b" stroke-width="16" fill="none" stroke-dasharray="60 30"/>
  <!-- Core dot -->
  <circle cx="256" cy="256" r="36" fill="#1e293b"/>
  <!-- Circuit nodes -->
  <circle cx="256" cy="136" r="14" fill="#475569"/>
  <circle cx="360" cy="200" r="12" fill="#64748b"/>
  <circle cx="360" cy="312" r="14" fill="#475569"/>
  <circle cx="256" cy="376" r="12" fill="#64748b"/>
  <circle cx="152" cy="312" r="14" fill="#475569"/>
  <circle cx="152" cy="200" r="12" fill="#64748b"/>
  <!-- Connection lines -->
  <line x1="256" y1="150" x2="256" y2="220" stroke="#475569" stroke-width="4" stroke-linecap="round"/>
  <line x1="292" y1="256" x2="348" y2="204" stroke="#64748b" stroke-width="3" stroke-linecap="round"/>
  <line x1="292" y1="256" x2="348" y2="308" stroke="#475569" stroke-width="4" stroke-linecap="round"/>
  <line x1="256" y1="292" x2="256" y2="364" stroke="#64748b" stroke-width="3" stroke-linecap="round"/>
  <line x1="220" y1="256" x2="164" y2="308" stroke="#475569" stroke-width="4" stroke-linecap="round"/>
  <line x1="220" y1="256" x2="164" y2="204" stroke="#64748b" stroke-width="3" stroke-linecap="round"/>
  <!-- Outer accent arcs -->
  <path d="M 100 180 A 200 200 0 0 1 256 56" stroke="#94a3b8" stroke-width="10" fill="none" stroke-linecap="round"/>
  <path d="M 412 180 A 200 200 0 0 1 412 332" stroke="#94a3b8" stroke-width="10" fill="none" stroke-linecap="round"/>
</svg>
